<svg version="1.1" id="Layer_1" xmlns="http://www.w3.org/2000/svg" xmlns:xlink="http://www.w3.org/1999/xlink" x="0px" y="0px"
	 width="100%" viewBox="0 0 978 306" enable-background="new 0 0 978 306" xml:space="preserve">
<path fill="#000000" opacity="1.000000" stroke="none" 
	d="
M656.000000,307.000000 
	C437.333344,307.000000 219.166672,307.000000 1.000000,307.000000 
	C1.000000,205.000000 1.000000,103.000000 1.000000,1.000000 
	C327.000000,1.000000 653.000000,1.000000 979.000000,1.000000 
	C979.000000,103.000000 979.000000,205.000000 979.000000,307.000000 
	C871.500000,307.000000 764.000000,307.000000 656.000000,307.000000 
M324.791595,149.498520 
	C324.221802,143.034714 323.979156,136.522537 323.031464,130.114624 
	C313.801147,67.703545 252.635895,22.278286 190.098434,31.279741 
	C122.881325,40.954769 78.179390,100.699326 87.870247,167.908676 
	C97.356117,233.696289 162.709229,279.728363 227.924133,266.556976 
	C284.393585,255.151855 323.069000,208.796692 324.791595,149.498520 
M812.122925,144.174286 
	C811.758301,141.375931 811.515625,138.555359 811.010620,135.782578 
	C803.685852,95.567070 761.214478,92.814575 741.330750,109.073143 
	C725.531067,121.992203 720.467957,138.990540 723.086609,158.558853 
	C725.569702,177.114700 734.557861,191.261856 753.242981,196.898331 
	C771.821777,202.502762 788.219238,197.944046 801.109680,183.254761 
	C810.635193,172.399979 813.358643,159.211487 812.122925,144.174286 
M402.802002,157.630508 
	C404.790527,159.399353 406.964661,161.001312 408.733124,162.968018 
	C414.298920,169.157578 414.027557,176.428543 411.591248,183.625885 
	C409.305603,190.378128 403.983704,194.382767 396.995880,194.735657 
	C392.153229,194.980225 387.145050,193.809174 382.380676,192.600861 
	C380.960602,192.240723 379.358154,189.705322 379.157623,188.010620 
	C378.684998,184.015915 379.006073,179.927307 379.006073,175.876694 
	C378.512634,175.745255 378.019226,175.613815 377.525787,175.482361 
	C375.439117,181.691299 373.352417,187.900253 371.159393,194.425659 
	C382.004730,198.597000 392.292877,200.298538 403.056152,198.129913 
	C418.294525,195.059616 426.260223,183.059677 423.007263,167.905594 
	C421.574158,161.229279 417.538757,156.270401 412.193695,152.243652 
	C404.754425,146.639221 397.201294,141.174377 389.956512,135.328064 
	C386.016815,132.148849 383.171204,128.032120 382.986420,122.587486 
	C382.557953,109.965172 395.290527,101.789230 408.604034,106.071838 
	C411.630676,107.045425 413.488800,108.487579 413.330170,111.992531 
	C413.149963,115.973679 413.288513,119.969254 413.288513,123.958549 
	C413.816559,124.069939 414.344604,124.181328 414.872650,124.292717 
	C416.961914,118.030083 419.051178,111.767448 421.240082,105.206047 
	C409.636566,99.397270 398.557251,98.974503 387.482849,104.055885 
	C378.998047,107.949059 373.824982,114.642708 373.346191,124.209953 
	C372.902374,133.077850 377.947998,139.335403 384.374054,144.443481 
	C390.092499,148.989090 396.264984,152.963455 402.802002,157.630508 
M677.049377,171.496887 
	C677.049377,149.874100 677.049377,128.251312 677.049377,107.239632 
	C685.105103,107.239632 692.741394,107.310265 700.375183,107.204643 
	C703.400574,107.162781 704.083679,108.775482 703.900208,111.294083 
	C703.691345,114.160019 703.455627,117.024002 703.231628,119.888840 
	C703.774170,120.053513 704.316772,120.218178 704.859314,120.382843 
	C707.021057,115.018074 709.182800,109.653305 711.663452,103.497124 
	C684.806396,101.567039 658.961975,100.739769 632.368225,103.500404 
	C634.909668,109.827560 637.034119,115.116623 639.158569,120.405685 
	C639.708069,120.236656 640.257568,120.067627 640.807007,119.898598 
	C640.594116,117.034225 640.350647,114.171707 640.177551,111.304924 
	C640.027954,108.826103 640.684692,107.163918 643.721313,107.207443 
	C651.346558,107.316765 658.974304,107.243576 666.631958,107.243576 
	C666.631958,136.795761 666.631958,166.937698 666.631958,196.860352 
	C673.397522,196.860352 680.090820,196.860352 687.954712,196.860352 
	C686.438049,196.064835 685.960632,195.738708 685.434021,195.549698 
	C678.291504,192.985870 677.130188,191.415146 677.056763,183.984558 
	C677.018921,180.154938 677.049622,176.324661 677.049377,171.496887 
M573.127319,196.824295 
	C575.342041,196.957336 577.556702,197.090393 579.771423,197.223434 
	C580.169434,196.792572 580.567505,196.361710 580.965515,195.930847 
	C568.754883,194.977448 569.964233,186.657013 570.018250,178.918182 
	C570.072876,171.089996 569.913330,163.258194 570.110840,155.434616 
	C570.161804,153.415253 570.803345,151.180191 571.849243,149.453506 
	C579.341309,137.085220 587.031860,124.837433 594.598938,112.514244 
	C596.126709,110.026306 597.396729,107.380142 599.364502,103.734314 
	C592.592651,103.734314 586.947205,103.734314 581.301758,103.734314 
	C582.798401,104.750229 584.402344,105.014824 585.965271,105.432816 
	C589.792175,106.456268 591.367859,108.523705 589.088318,112.359787 
	C581.990356,124.304672 574.915405,136.263199 567.457581,148.847305 
	C566.144287,146.633347 565.271667,145.265884 564.499329,143.843933 
	C557.839600,131.583282 551.284912,119.263985 544.453186,107.100166 
	C543.475952,105.360268 540.928040,102.998009 539.548523,103.258842 
	C534.571411,104.199883 529.783081,106.139191 524.923462,107.701508 
	C524.949890,108.280426 524.976379,108.859352 525.002869,109.438271 
	C533.254578,107.454880 536.832947,112.658501 540.036255,118.439232 
	C546.235779,129.626663 552.449524,140.806198 558.613220,152.013275 
	C559.237549,153.148376 559.954407,154.446472 559.962891,155.673538 
	C560.058411,169.425888 560.023254,183.179138 560.023254,196.755646 
	C563.652710,196.755646 567.942200,196.755646 573.127319,196.824295 
M847.556335,196.687820 
	C852.224121,196.687820 856.891907,196.687820 861.559631,196.687820 
	C851.632507,194.797516 851.793396,187.500824 851.859497,179.794434 
	C852.052246,157.312256 851.963867,134.827255 851.885742,112.343697 
	C851.875061,109.280197 851.294434,106.218674 850.884338,102.252991 
	C843.601440,103.442383 837.037354,104.514381 830.473328,105.586380 
	C840.203796,108.240440 841.584045,109.878593 841.895203,120.065590 
	C841.946045,121.729805 841.938965,123.396141 841.939270,125.061493 
	C841.942383,139.551071 841.941162,154.040634 841.941223,168.530212 
	C841.941223,177.955460 841.941223,187.380722 841.941223,197.098892 
	C843.033142,197.021255 844.809082,196.894974 847.556335,196.687820 
M454.145721,195.752426 
	C454.283478,196.168488 454.417999,196.947266 454.559448,196.948532 
	C461.232513,197.008316 467.906158,197.000626 474.579712,197.000626 
	C463.890991,194.779465 464.908264,186.673691 464.937408,178.916824 
	C465.021271,156.608261 465.006958,134.299042 464.919739,111.990517 
	C464.907928,108.970741 464.257965,105.953453 463.818420,102.210487 
	C456.518860,103.429405 450.096130,104.501900 443.673431,105.574402 
	C453.387756,108.437515 454.665833,109.983932 454.942993,120.013390 
	C454.966003,120.845444 454.985046,121.677933 454.985168,122.510223 
	C454.988068,144.652603 455.002319,166.795013 454.964844,188.937317 
	C454.961517,190.915787 454.619904,192.893677 454.145721,195.752426 
M855.437073,143.119827 
	C853.375977,144.781876 853.769714,146.304718 855.408142,148.131241 
	C859.299500,152.469223 863.036987,156.945465 866.824280,161.376404 
	C876.960205,173.235168 887.089600,185.099472 897.091125,196.808838 
	C902.208679,196.808838 907.565308,196.808838 914.190125,196.808838 
	C893.104004,180.822571 879.534180,159.655380 861.843506,141.861923 
	C874.168091,129.215256 886.017517,117.056129 898.781677,103.958405 
	C890.992615,103.958405 885.003784,103.958405 879.015015,103.958405 
	C878.971130,104.379250 878.927185,104.800095 878.883301,105.220947 
	C882.215271,105.952751 885.547241,106.684555 889.865417,107.632973 
	C877.955261,119.926178 866.962830,131.272156 855.437073,143.119827 
M525.981750,196.052582 
	C522.843140,193.482910 519.315674,191.263672 516.631409,188.284622 
	C502.930939,173.079636 489.446808,157.679733 475.905396,142.331833 
	C475.724762,142.127090 475.783081,141.711563 475.676514,141.076309 
	C487.345398,129.096771 499.149628,116.978325 510.953857,104.859879 
	C510.583588,104.218361 510.213318,103.576843 509.843048,102.935326 
	C503.906342,103.235962 497.969666,103.536598 492.032959,103.837234 
	C492.030396,104.294304 492.027832,104.751373 492.025269,105.208443 
	C495.330322,105.956955 498.635406,106.705467 502.913635,107.674377 
	C491.043610,119.910469 480.234009,131.195816 469.228516,142.286835 
	C466.820679,144.713394 466.657898,146.220535 469.019379,148.812088 
	C474.958527,155.329819 480.573700,162.143295 486.299957,168.854279 
	C494.263306,178.187103 502.209473,187.534561 510.125793,196.832047 
	C515.063354,196.832047 520.367371,196.832047 525.981750,196.052582 
z"/>
<path fill="#F8D600" opacity="1.000000" stroke="none" 
	d="
M324.789185,149.979446 
	C323.069000,208.796692 284.393585,255.151855 227.924133,266.556976 
	C162.709229,279.728363 97.356117,233.696289 87.870247,167.908676 
	C78.179390,100.699326 122.881325,40.954769 190.098434,31.279741 
	C252.635895,22.278286 313.801147,67.703545 323.031464,130.114624 
	C323.979156,136.522537 324.221802,143.034714 324.789185,149.979446 
M125.903931,73.408386 
	C101.995544,99.116287 91.632599,129.592743 96.475502,164.233200 
	C104.779510,223.630295 155.533829,263.651245 215.408783,259.151093 
	C279.890656,254.304688 327.421143,191.083710 313.486572,127.728203 
	C304.134766,85.208694 278.311523,56.269867 236.463425,44.035007 
	C194.634933,31.805885 157.620514,42.426208 125.903931,73.408386 
z"/>
<path fill="#F3F3F3" opacity="1.000000" stroke="none" 
	d="
M812.155884,144.621964 
	C813.358643,159.211487 810.635193,172.399979 801.109680,183.254761 
	C788.219238,197.944046 771.821777,202.502762 753.242981,196.898331 
	C734.557861,191.261856 725.569702,177.114700 723.086609,158.558853 
	C720.467957,138.990540 725.531067,121.992203 741.330750,109.073143 
	C761.214478,92.814575 803.685852,95.567070 811.010620,135.782578 
	C811.515625,138.555359 811.758301,141.375931 812.155884,144.621964 
M782.616333,192.323593 
	C786.532410,188.584198 791.726318,185.525955 794.144958,180.988388 
	C805.041138,160.546173 804.917786,139.408875 793.263428,119.560287 
	C780.380371,97.619118 750.445129,98.713203 739.460632,121.139931 
	C730.619080,139.191376 730.727112,157.967041 739.177856,176.137833 
	C747.061890,193.090103 764.807495,199.567169 782.616333,192.323593 
z"/>
<path fill="#F2F2F2" opacity="1.000000" stroke="none" 
	d="
M402.519531,157.410217 
	C396.264984,152.963455 390.092499,148.989090 384.374054,144.443481 
	C377.947998,139.335403 372.902374,133.077850 373.346191,124.209953 
	C373.824982,114.642708 378.998047,107.949059 387.482849,104.055885 
	C398.557251,98.974503 409.636566,99.397270 421.240082,105.206047 
	C419.051178,111.767448 416.961914,118.030083 414.872650,124.292717 
	C414.344604,124.181328 413.816559,124.069939 413.288513,123.958549 
	C413.288513,119.969254 413.149963,115.973679 413.330170,111.992531 
	C413.488800,108.487579 411.630676,107.045425 408.604034,106.071838 
	C395.290527,101.789230 382.557953,109.965172 382.986420,122.587486 
	C383.171204,128.032120 386.016815,132.148849 389.956512,135.328064 
	C397.201294,141.174377 404.754425,146.639221 412.193695,152.243652 
	C417.538757,156.270401 421.574158,161.229279 423.007263,167.905594 
	C426.260223,183.059677 418.294525,195.059616 403.056152,198.129913 
	C392.292877,200.298538 382.004730,198.597000 371.159393,194.425659 
	C373.352417,187.900253 375.439117,181.691299 377.525787,175.482361 
	C378.019226,175.613815 378.512634,175.745255 379.006073,175.876694 
	C379.006073,179.927307 378.684998,184.015915 379.157623,188.010620 
	C379.358154,189.705322 380.960602,192.240723 382.380676,192.600861 
	C387.145050,193.809174 392.153229,194.980225 396.995880,194.735657 
	C403.983704,194.382767 409.305603,190.378128 411.591248,183.625885 
	C414.027557,176.428543 414.298920,169.157578 408.733124,162.968018 
	C406.964661,161.001312 404.790527,159.399353 402.519531,157.410217 
z"/>
<path fill="#F5F5F5" opacity="1.000000" stroke="none" 
	d="
M677.049377,171.995789 
	C677.049622,176.324661 677.018921,180.154938 677.056763,183.984558 
	C677.130188,191.415146 678.291504,192.985870 685.434021,195.549698 
	C685.960632,195.738708 686.438049,196.064835 687.954712,196.860352 
	C680.090820,196.860352 673.397522,196.860352 666.631958,196.860352 
	C666.631958,166.937698 666.631958,136.795761 666.631958,107.243576 
	C658.974304,107.243576 651.346558,107.316765 643.721313,107.207443 
	C640.684692,107.163918 640.027954,108.826103 640.177551,111.304924 
	C640.350647,114.171707 640.594116,117.034225 640.807007,119.898598 
	C640.257568,120.067627 639.708069,120.236656 639.158569,120.405685 
	C637.034119,115.116623 634.909668,109.827560 632.368225,103.500404 
	C658.961975,100.739769 684.806396,101.567039 711.663452,103.497124 
	C709.182800,109.653305 707.021057,115.018074 704.859314,120.382843 
	C704.316772,120.218178 703.774170,120.053513 703.231628,119.888840 
	C703.455627,117.024002 703.691345,114.160019 703.900208,111.294083 
	C704.083679,108.775482 703.400574,107.162781 700.375183,107.204643 
	C692.741394,107.310265 685.105103,107.239632 677.049377,107.239632 
	C677.049377,128.251312 677.049377,149.874100 677.049377,171.995789 
z"/>
<path fill="#F4F4F4" opacity="1.000000" stroke="none" 
	d="
M572.679443,196.789978 
	C567.942200,196.755646 563.652710,196.755646 560.023254,196.755646 
	C560.023254,183.179138 560.058411,169.425888 559.962891,155.673538 
	C559.954407,154.446472 559.237549,153.148376 558.613220,152.013275 
	C552.449524,140.806198 546.235779,129.626663 540.036255,118.439232 
	C536.832947,112.658501 533.254578,107.454880 525.002869,109.438271 
	C524.976379,108.859352 524.949890,108.280426 524.923462,107.701508 
	C529.783081,106.139191 534.571411,104.199883 539.548523,103.258842 
	C540.928040,102.998009 543.475952,105.360268 544.453186,107.100166 
	C551.284912,119.263985 557.839600,131.583282 564.499329,143.843933 
	C565.271667,145.265884 566.144287,146.633347 567.457581,148.847305 
	C574.915405,136.263199 581.990356,124.304672 589.088318,112.359787 
	C591.367859,108.523705 589.792175,106.456268 585.965271,105.432816 
	C584.402344,105.014824 582.798401,104.750229 581.301758,103.734314 
	C586.947205,103.734314 592.592651,103.734314 599.364502,103.734314 
	C597.396729,107.380142 596.126709,110.026306 594.598938,112.514244 
	C587.031860,124.837433 579.341309,137.085220 571.849243,149.453506 
	C570.803345,151.180191 570.161804,153.415253 570.110840,155.434616 
	C569.913330,163.258194 570.072876,171.089996 570.018250,178.918182 
	C569.964233,186.657013 568.754883,194.977448 580.965515,195.930847 
	C580.567505,196.361710 580.169434,196.792572 579.771423,197.223434 
	C577.556702,197.090393 575.342041,196.957336 572.679443,196.789978 
z"/>
<path fill="#F6F6F6" opacity="1.000000" stroke="none" 
	d="
M847.070679,196.728271 
	C844.809082,196.894974 843.033142,197.021255 841.941223,197.098892 
	C841.941223,187.380722 841.941223,177.955460 841.941223,168.530212 
	C841.941162,154.040634 841.942383,139.551071 841.939270,125.061493 
	C841.938965,123.396141 841.946045,121.729805 841.895203,120.065590 
	C841.584045,109.878593 840.203796,108.240440 830.473328,105.586380 
	C837.037354,104.514381 843.601440,103.442383 850.884338,102.252991 
	C851.294434,106.218674 851.875061,109.280197 851.885742,112.343697 
	C851.963867,134.827255 852.052246,157.312256 851.859497,179.794434 
	C851.793396,187.500824 851.632507,194.797516 861.559631,196.687820 
	C856.891907,196.687820 852.224121,196.687820 847.070679,196.728271 
z"/>
<path fill="#F7F7F7" opacity="1.000000" stroke="none" 
	d="
M454.290558,195.312134 
	C454.619904,192.893677 454.961517,190.915787 454.964844,188.937317 
	C455.002319,166.795013 454.988068,144.652603 454.985168,122.510223 
	C454.985046,121.677933 454.966003,120.845444 454.942993,120.013390 
	C454.665833,109.983932 453.387756,108.437515 443.673431,105.574402 
	C450.096130,104.501900 456.518860,103.429405 463.818420,102.210487 
	C464.257965,105.953453 464.907928,108.970741 464.919739,111.990517 
	C465.006958,134.299042 465.021271,156.608261 464.937408,178.916824 
	C464.908264,186.673691 463.890991,194.779465 474.579712,197.000626 
	C467.906158,197.000626 461.232513,197.008316 454.559448,196.948532 
	C454.417999,196.947266 454.283478,196.168488 454.290558,195.312134 
z"/>
<path fill="#F2F2F2" opacity="1.000000" stroke="none" 
	d="
M855.703735,142.868973 
	C866.962830,131.272156 877.955261,119.926178 889.865417,107.632973 
	C885.547241,106.684555 882.215271,105.952751 878.883301,105.220947 
	C878.927185,104.800095 878.971130,104.379250 879.015015,103.958405 
	C885.003784,103.958405 890.992615,103.958405 898.781677,103.958405 
	C886.017517,117.056129 874.168091,129.215256 861.843506,141.861923 
	C879.534180,159.655380 893.104004,180.822571 914.190125,196.808838 
	C907.565308,196.808838 902.208679,196.808838 897.091125,196.808838 
	C887.089600,185.099472 876.960205,173.235168 866.824280,161.376404 
	C863.036987,156.945465 859.299500,152.469223 855.408142,148.131241 
	C853.769714,146.304718 853.375977,144.781876 855.703735,142.868973 
z"/>
<path fill="#F1F1F1" opacity="1.000000" stroke="none" 
	d="
M525.826538,196.442322 
	C520.367371,196.832047 515.063354,196.832047 510.125793,196.832047 
	C502.209473,187.534561 494.263306,178.187103 486.299957,168.854279 
	C480.573700,162.143295 474.958527,155.329819 469.019379,148.812088 
	C466.657898,146.220535 466.820679,144.713394 469.228516,142.286835 
	C480.234009,131.195816 491.043610,119.910469 502.913635,107.674377 
	C498.635406,106.705467 495.330322,105.956955 492.025269,105.208443 
	C492.027832,104.751373 492.030396,104.294304 492.032959,103.837234 
	C497.969666,103.536598 503.906342,103.235962 509.843048,102.935326 
	C510.213318,103.576843 510.583588,104.218361 510.953857,104.859879 
	C499.149628,116.978325 487.345398,129.096771 475.676514,141.076309 
	C475.783081,141.711563 475.724762,142.127090 475.905396,142.331833 
	C489.446808,157.679733 502.930939,173.079636 516.631409,188.284622 
	C519.315674,191.263672 522.843140,193.482910 525.826538,196.442322 
z"/>
<path fill="#010100" opacity="1.000000" stroke="none" 
	d="
M126.152534,73.157379 
	C157.620514,42.426208 194.634933,31.805885 236.463425,44.035007 
	C278.311523,56.269867 304.134766,85.208694 313.486572,127.728203 
	C327.421143,191.083710 279.890656,254.304688 215.408783,259.151093 
	C155.533829,263.651245 104.779510,223.630295 96.475502,164.233200 
	C91.632599,129.592743 101.995544,99.116287 126.152534,73.157379 
M261.278107,132.790726 
	C260.589966,131.290161 259.835144,129.816193 259.224182,128.284836 
	C253.670547,114.364769 244.295425,103.645065 230.622284,97.740921 
	C224.060059,94.907303 220.495163,91.903076 221.907654,84.615860 
	C221.952911,84.382408 221.622375,84.076118 221.445068,83.765305 
	C210.719803,83.765305 199.989746,83.765305 189.018478,83.765305 
	C189.018478,85.267517 188.825043,86.463287 189.051697,87.573265 
	C190.074097,92.579880 187.747345,94.583870 183.154770,96.405167 
	C170.321548,101.494469 160.513916,110.487274 154.420883,122.874336 
	C151.274567,129.270737 149.413025,136.207123 139.748535,132.530563 
	C139.748535,144.168701 139.748535,154.929718 139.748535,166.004196 
	C141.485092,166.004196 143.016373,166.244354 144.442947,165.959686 
	C148.938019,165.062759 150.600403,167.263657 152.178070,171.247742 
	C157.606796,184.956940 166.984421,195.624725 180.608887,201.240921 
	C187.449081,204.060547 190.310028,207.489395 189.190109,214.522842 
	C189.156281,214.735229 189.536713,215.013550 189.794891,215.354889 
	C200.335739,215.354889 210.944794,215.354889 222.079025,215.354889 
	C222.079025,211.745453 222.079025,208.341141 222.079025,204.950027 
	C237.545059,199.785919 249.305069,190.614227 256.474060,176.438828 
	C259.729218,170.002258 261.514343,162.749496 271.373901,166.421890 
	C271.373901,154.761536 271.373901,144.021652 271.373901,132.973846 
	C268.092102,132.973846 265.106873,132.973846 261.278107,132.790726 
z"/>
<path fill="#020202" opacity="1.000000" stroke="none" 
	d="
M782.290894,192.528244 
	C764.807495,199.567169 747.061890,193.090103 739.177856,176.137833 
	C730.727112,157.967041 730.619080,139.191376 739.460632,121.139931 
	C750.445129,98.713203 780.380371,97.619118 793.263428,119.560287 
	C804.917786,139.408875 805.041138,160.546173 794.144958,180.988388 
	C791.726318,185.525955 786.532410,188.584198 782.290894,192.528244 
z"/>
<path fill="#FCD900" opacity="1.000000" stroke="none" 
	d="
M261.699890,132.882294 
	C265.106873,132.973846 268.092102,132.973846 271.373901,132.973846 
	C271.373901,144.021652 271.373901,154.761536 271.373901,166.421890 
	C261.514343,162.749496 259.729218,170.002258 256.474060,176.438828 
	C249.305069,190.614227 237.545059,199.785919 222.079025,204.950027 
	C222.079025,208.341141 222.079025,211.745453 222.079025,215.354889 
	C210.944794,215.354889 200.335739,215.354889 189.794891,215.354889 
	C189.536713,215.013550 189.156281,214.735229 189.190109,214.522842 
	C190.310028,207.489395 187.449081,204.060547 180.608887,201.240921 
	C166.984421,195.624725 157.606796,184.956940 152.178070,171.247742 
	C150.600403,167.263657 148.938019,165.062759 144.442947,165.959686 
	C143.016373,166.244354 141.485092,166.004196 139.748535,166.004196 
	C139.748535,154.929718 139.748535,144.168701 139.748535,132.530563 
	C149.413025,136.207123 151.274567,129.270737 154.420883,122.874336 
	C160.513916,110.487274 170.321548,101.494469 183.154770,96.405167 
	C187.747345,94.583870 190.074097,92.579880 189.051697,87.573265 
	C188.825043,86.463287 189.018478,85.267517 189.018478,83.765305 
	C199.989746,83.765305 210.719803,83.765305 221.445068,83.765305 
	C221.622375,84.076118 221.952911,84.382408 221.907654,84.615860 
	C220.495163,91.903076 224.060059,94.907303 230.622284,97.740921 
	C244.295425,103.645065 253.670547,114.364769 259.224182,128.284836 
	C259.835144,129.816193 260.589966,131.290161 261.699890,132.882294 
M188.825150,112.451294 
	C178.668732,115.791565 172.740997,123.423523 167.944351,132.599609 
	C169.709747,132.924835 171.073181,133.176025 172.367554,133.414490 
	C172.367554,144.390793 172.367554,154.998672 172.367554,165.641434 
	C170.915451,165.899994 169.648529,166.119995 168.387695,166.370590 
	C168.337585,166.380554 168.345276,166.681351 168.302444,167.049164 
	C172.668076,175.995148 179.261414,182.800873 188.743118,186.992844 
	C188.991211,185.284073 189.171967,184.039078 189.352951,182.792480 
	C200.339493,182.792480 210.936371,182.792480 221.571609,182.792480 
	C221.916931,184.276245 222.216888,185.565033 222.537170,186.941223 
	C231.992844,182.376999 243.550583,170.310104 242.614700,166.206680 
	C241.364807,166.033401 240.114929,165.860123 238.836700,165.682907 
	C238.836700,154.722260 238.836700,144.122528 238.836700,133.419083 
	C240.292175,133.114594 241.584549,132.844223 243.077179,132.531967 
	C238.452194,122.946648 231.808456,116.191002 222.363647,111.989822 
	C222.072052,113.668015 221.856567,114.908188 221.595627,116.410004 
	C211.426025,116.410004 201.463394,116.487373 191.507019,116.272942 
	C190.648636,116.254456 189.831863,114.304260 188.825150,112.451294 
z"/>
<path fill="#040300" opacity="1.000000" stroke="none" 
	d="
M188.910461,112.851341 
	C189.831863,114.304260 190.648636,116.254456 191.507019,116.272942 
	C201.463394,116.487373 211.426025,116.410004 221.595627,116.410004 
	C221.856567,114.908188 222.072052,113.668015 222.363647,111.989822 
	C231.808456,116.191002 238.452194,122.946648 243.077179,132.531967 
	C241.584549,132.844223 240.292175,133.114594 238.836700,133.419083 
	C238.836700,144.122528 238.836700,154.722260 238.836700,165.682907 
	C240.114929,165.860123 241.364807,166.033401 242.615372,166.208252 
	C243.550583,170.310104 231.992844,182.376999 222.537170,186.941223 
	C222.216888,185.565033 221.916931,184.276245 221.571609,182.792480 
	C210.936371,182.792480 200.339493,182.792480 189.352951,182.792480 
	C189.171967,184.039078 188.991211,185.284073 188.743118,186.992844 
	C179.261414,182.800873 172.668076,175.995148 168.302444,167.049164 
	C168.345276,166.681351 168.337585,166.380554 168.387695,166.370590 
	C169.648529,166.119995 170.915451,165.899994 172.367554,165.641434 
	C172.367554,154.998672 172.367554,144.390793 172.367554,133.414490 
	C171.073181,133.176025 169.709747,132.924835 167.944351,132.599609 
	C172.740997,123.423523 178.668732,115.791565 188.910461,112.851341 
z"/>
</svg>